<svg xmlns="http://www.w3.org/2000/svg" viewBox="0 0 64 64">
  <rect width="64" height="64" rx="15" fill="#f5efe5"/>
  <rect x="2" y="2" width="60" height="60" rx="13" fill="none" stroke="#8cb6b0" stroke-width="2"/>
  <path d="M32 24c-2-7-1-12 3-15" fill="none" stroke="#314956" stroke-width="3.5" stroke-linecap="round"/>
  <path d="M34 19c1-8 8-10 15-8-2 8-8 12-15 8Z" fill="#6d929c"/>
  <path d="M32 25c-7-6-17-4-20 4-4 11 5 25 13 25 3 0 4-2 7-2s4 2 7 2c8 0 17-14 13-25-3-8-13-10-20-4Z" fill="#d76c59"/>
  <path d="M46 27c6 8-1 21-9 23-4 1-6-1-9 0 2 1 3 2 4 2 3 0 4 2 7 2 8 0 17-14 13-25-2-4-4-6-8-7l2 5Z" fill="#b25954"/>
  <path d="M18 33c0-3 2-5 5-5" fill="none" stroke="#ffe5c7" stroke-width="3" stroke-linecap="round"/>
</svg>
